<svg blocklyprop="blocklypropproject" xmlns="http://www.w3.org/2000/svg" xmlns:html="http://www.w3.org/1999/xhtml" xmlns:xlink="http://www.w3.org/1999/xlink" version="1.1" class="blocklySvg"><style>.blocklySvg { background-color: #fff; overflow: auto; width:1141px; height:950px;} .blocklyWidgetDiv {display: none; position: absolute; z-index: 999;} .blocklyPathLight { fill: none; stroke-linecap: round; stroke-width: 2;} .blocklyDisabled>.blocklyPath { fill-opacity: .5; stroke-opacity: .5;} .blocklyDisabled>.blocklyPathLight, .blocklyDisabled>.blocklyPathDark {display: none;} .blocklyText {cursor: default; fill: #fff; font-family: sans-serif; font-size: 11pt;} .blocklyNonEditableText>text { pointer-events: none;} .blocklyNonEditableText>rect, .blocklyEditableText>rect {fill: #fff; fill-opacity: .6;} .blocklyNonEditableText>text, .blocklyEditableText>text {fill: #000;} .blocklyBubbleText {fill: #000;} .blocklySvg text {user-select: none; -moz-user-select: none; -webkit-user-select: none; cursor: inherit;} .blocklyHidden {display: none;} .blocklyFieldDropdown:not(.blocklyHidden) {display: block;} .bkginfo {cursor: default; fill: rgba(0, 0, 0, 0.3); font-family: sans-serif; font-size: 10pt;}</style><g class="blocklyBlockCanvas" transform="translate(1048.1948218345642,716.5) scale(1)"><g data-id="/awjN)_6S?W=v7%I_WU?" class="blocklyDraggable" transform="translate(-698,-749)"><path class="blocklyPathDark" transform="translate(1,1)" fill="#1e547a" d="m 0,8 A 8,8 0 0,1 8,0 H 15 l 6,4 3,0 6,-4 H 389.0616817474365 v 25 H 29.5 l -6,4 -3,0 -6,-4 H 0 z
"></path><path class="blocklyPath" stroke="none" fill="#266999" d="m 0,8 A 8,8 0 0,1 8,0 H 15 l 6,4 3,0 6,-4 H 389.0616817474365 v 25 H 29.5 l -6,4 -3,0 -6,-4 H 0 z
"></path><path class="blocklyPathLight" stroke="#6796b8" d="m 0.5,7.5 A 7.5,7.5 0 0,1 8,0.5 H 15 l 6,4 3,0 6,-4 H 388.5616817474365 M 388.5616817474365,0.5 M 0.5,24.5 V 8
"></path><g transform="translate(10,5)"><text class="blocklyText" y="12.5">add</text></g><g class="blocklyEditableText" transform="translate(44.46622276306152,5)" style="cursor: default;"><rect rx="4" ry="4" x="-5" y="0" height="16" width="86.6279296875"></rect><text class="blocklyText" y="12.5" text-anchor="start" x="0">comment<tspan style="fill: rgb(38, 105, 153);"> ▾</tspan></text><image y="5" style="display: none;"></image></g><g class="blocklyEditableText" transform="translate(141.09415245056152,5)" style="cursor: text;"><rect rx="4" ry="4" x="-5" y="0" height="16" width="247.967529296875"></rect><text class="blocklyText" y="12.5">PLX-DAQ LaserPING in BlocklyProp</text></g><g data-id="Ewk1jx8YC@W|zgh$GsR4" class="blocklyDraggable" transform="translate(0,26)"><path class="blocklyPathDark" transform="translate(1,1)" fill="#1e547a" d="m 0,0 H 15 l 6,4 3,0 6,-4 H 40 H 163.9630241394043 v 36 H 29.5 l -6,4 -3,0 -6,-4 H 0 z
M 153.9630241394043,5 h -54.62163162231445 v 5 c 0,10 -8,-8 -8,7.5 s 8,-2.5 8,7.5 v 7 h 54.62163162231445 z"></path><path class="blocklyPath" stroke="none" fill="#266999" d="m 0,0 H 15 l 6,4 3,0 6,-4 H 40 H 163.9630241394043 v 36 H 29.5 l -6,4 -3,0 -6,-4 H 0 z
M 153.9630241394043,5 h -54.62163162231445 v 5 c 0,10 -8,-8 -8,7.5 s 8,-2.5 8,7.5 v 7 h 54.62163162231445 z"></path><path class="blocklyPathLight" stroke="#6796b8" d="m 0.5,0.5 H 15 l 6,4 3,0 6,-4 H 39.5 M 39.5,0.5 H 163.4630241394043 M 0.5,35.5 V 0.5
M 154.4630241394043,5.5 v 27 h -54.62163162231445 M 94.24139251708985,24.3 l 3.68,-2.1"></path><g data-id=":|UoxIQge.90X:yaLX$0" class="blocklyDraggable" transform="translate(100.34139251708984,6)"><path class="blocklyPathDark" transform="translate(1,1)" fill="#1e547a" d="m 0,0 H 52.62163162231445 v 25 H 0 V 20 c 0,-10 -8,8 -8,-7.5 s 8,2.5 8,-7.5 z
"></path><path class="blocklyPath" stroke="none" fill="#266999" d="m 0,0 H 52.62163162231445 v 25 H 0 V 20 c 0,-10 -8,8 -8,-7.5 s 8,2.5 8,-7.5 z
"></path><path class="blocklyPathLight" stroke="#6796b8" d="m 0.5,0.5 H 52.12163162231445 M 52.12163162231445,0.5 M 0.5,24.5 V 18.5 m -7.36,-0.5 q -1.52,-5.5 0,-11 m 7.36,1 V 0.5 H 1
"></path><g class="blocklyEditableText" transform="translate(10,5)" style="cursor: text;"><rect rx="4" ry="4" x="-5" y="0" height="16" width="42.62163162231445"></rect><text class="blocklyText" y="12.5">1000</text></g></g><g transform="translate(10,10)"><text class="blocklyText" y="12.5">pause (ms)</text></g><g data-id="?^MRR.P~#?E7M~_W{A;=" class="blocklyDraggable" transform="translate(0,37)"><path class="blocklyPathDark" transform="translate(1,1)" fill="#7a1e3d" d="m 0,0 H 15 l 6,4 3,0 6,-4 H 113.71916198730469 v 24 H 29.5 l -6,4 -3,0 -6,-4 H 0 z
"></path><path class="blocklyPath" stroke="none" fill="#99264c" d="m 0,0 H 15 l 6,4 3,0 6,-4 H 113.71916198730469 v 24 H 29.5 l -6,4 -3,0 -6,-4 H 0 z
"></path><path class="blocklyPathLight" stroke="#b86782" d="m 0.5,0.5 H 15 l 6,4 3,0 6,-4 H 113.21916198730469 M 113.21916198730469,0.5 M 0.5,23.5 V 0.5
"></path><g transform="translate(10,5)"><text class="blocklyText" y="12.5">Terminal close</text></g><g data-id="eI@U8|^rxe@t@w:bgax*" class="blocklyDraggable" transform="translate(0,25)"><path class="blocklyPathDark" transform="translate(1,1)" fill="#7a1e3d" d="m 0,0 H 15 l 6,4 3,0 6,-4 H 40 H 483.82243728637695 v 25 H 29.5 l -6,4 -3,0 -6,-4 H 0 z
"></path><path class="blocklyPath" stroke="none" fill="#99264c" d="m 0,0 H 15 l 6,4 3,0 6,-4 H 40 H 483.82243728637695 v 25 H 29.5 l -6,4 -3,0 -6,-4 H 0 z
"></path><path class="blocklyPathLight" stroke="#b86782" d="m 0.5,0.5 H 15 l 6,4 3,0 6,-4 H 39.5 M 39.5,0.5 H 483.32243728637695 M 0.5,24.5 V 0.5
"></path><g transform="translate(10,5)"><text class="blocklyText" y="12.5">Serial initialize RX</text></g><g class="blocklyEditableText" transform="translate(138.17103576660156,5)" style="cursor: default;"><rect rx="4" ry="4" x="-5" y="0" height="16" width="42.635963439941406"></rect><text class="blocklyText" y="12.5" text-anchor="start" x="0">31<tspan style="fill: rgb(153, 38, 76);"> ▾</tspan></text><image y="5" style="display: none;"></image></g><g transform="translate(180.80699920654297,5)"><text class="blocklyText" y="12.5">TX</text></g><g class="blocklyEditableText" transform="translate(209.54510879516602,5)" style="cursor: default;"><rect rx="4" ry="4" x="-5" y="0" height="16" width="42.635963439941406"></rect><text class="blocklyText" y="12.5" text-anchor="start" x="0">30<tspan style="fill: rgb(153, 38, 76);"> ▾</tspan></text><image y="5" style="display: none;"></image></g><g transform="translate(252.18107223510742,5)"><text class="blocklyText" y="12.5">baud</text></g><g class="blocklyEditableText" transform="translate(294.8027038574219,5)" style="cursor: default;"><rect rx="4" ry="4" x="-5" y="0" height="16" width="58.94677734375"></rect><text class="blocklyText" y="12.5" text-anchor="start" x="0">9600<tspan style="fill: rgb(153, 38, 76);"> ▾</tspan></text><image y="5" style="display: none;"></image></g><g transform="translate(353.7494812011719,5)"><text class="blocklyText" y="12.5">mode</text></g><g class="blocklyEditableText" transform="translate(400.4309272766113,5)" style="cursor: default;"><rect rx="4" ry="4" x="-5" y="0" height="16" width="83.39151000976562"></rect><text class="blocklyText" y="12.5" text-anchor="start" x="0">standard<tspan style="fill: rgb(153, 38, 76);"> ▾</tspan></text><image y="5" style="display: none;"></image></g><g data-id="HLsdF!djEy/)yn?Ed|d," class="blocklyDraggable" transform="translate(0,26)"><path class="blocklyPathDark" transform="translate(1,1)" fill="#7a1e3d" d="m 0,0 H 15 l 6,4 3,0 6,-4 H 40 H 297.84787940979004 v 36 H 29.5 l -6,4 -3,0 -6,-4 H 0 z
M 287.84787940979004,5 h -38.31081581115723 v 5 c 0,10 -8,-8 -8,7.5 s 8,-2.5 8,7.5 v 7 h 38.31081581115723 z"></path><path class="blocklyPath" stroke="none" fill="#99264c" d="m 0,0 H 15 l 6,4 3,0 6,-4 H 40 H 297.84787940979004 v 36 H 29.5 l -6,4 -3,0 -6,-4 H 0 z
M 287.84787940979004,5 h -38.31081581115723 v 5 c 0,10 -8,-8 -8,7.5 s 8,-2.5 8,7.5 v 7 h 38.31081581115723 z"></path><path class="blocklyPathLight" stroke="#b86782" d="m 0.5,0.5 H 15 l 6,4 3,0 6,-4 H 39.5 M 39.5,0.5 H 297.34787940979004 M 0.5,35.5 V 0.5
M 288.34787940979004,5.5 v 27 h -38.31081581115723 M 244.43706359863282,24.3 l 3.68,-2.1"></path><g transform="translate(10,10)"><text class="blocklyText" y="12.5">Serial transmit</text></g><g class="blocklyEditableText" transform="translate(113.71199035644531,10)" style="cursor: default;"><rect rx="4" ry="4" x="-5" y="0" height="16" width="129.8250732421875"></rect><text class="blocklyText" y="12.5" text-anchor="start" x="0">ASCII character<tspan style="fill: rgb(153, 38, 76);"> ▾</tspan></text><image y="5" style="display: none;"></image></g><g data-id="S61N4|.~-;U=M?GE_s*v" class="blocklyDraggable" transform="translate(250.5370635986328,6)"><path class="blocklyPathDark" transform="translate(1,1)" fill="#1e547a" d="m 0,0 H 36.31081581115723 v 25 H 0 V 20 c 0,-10 -8,8 -8,-7.5 s 8,2.5 8,-7.5 z
"></path><path class="blocklyPath" stroke="none" fill="#266999" d="m 0,0 H 36.31081581115723 v 25 H 0 V 20 c 0,-10 -8,8 -8,-7.5 s 8,2.5 8,-7.5 z
"></path><path class="blocklyPathLight" stroke="#6796b8" d="m 0.5,0.5 H 35.81081581115723 M 35.81081581115723,0.5 M 0.5,24.5 V 18.5 m -7.36,-0.5 q -1.52,-5.5 0,-11 m 7.36,1 V 0.5 H 1
"></path><g class="blocklyEditableText" transform="translate(10,5)" style="cursor: text;"><rect rx="4" ry="4" x="-5" y="0" height="16" width="26.310815811157227"></rect><text class="blocklyText" y="12.5">13</text></g></g><g data-id=";SZgWO!t?N1ydz()e=`]" class="blocklyDraggable" transform="translate(0,37)"><path class="blocklyPathDark" transform="translate(1,1)" fill="#7a1e3d" d="m 0,0 H 15 l 6,4 3,0 6,-4 H 40 H 554.1327257156372 v 36 H 29.5 l -6,4 -3,0 -6,-4 H 0 z
M 544.1327257156372,5 h -374.459942817688 v 5 c 0,10 -8,-8 -8,7.5 s 8,-2.5 8,7.5 v 7 h 374.459942817688 z"></path><path class="blocklyPath" stroke="none" fill="#99264c" d="m 0,0 H 15 l 6,4 3,0 6,-4 H 40 H 554.1327257156372 v 36 H 29.5 l -6,4 -3,0 -6,-4 H 0 z
M 544.1327257156372,5 h -374.459942817688 v 5 c 0,10 -8,-8 -8,7.5 s 8,-2.5 8,7.5 v 7 h 374.459942817688 z"></path><path class="blocklyPathLight" stroke="#b86782" d="m 0.5,0.5 H 15 l 6,4 3,0 6,-4 H 39.5 M 39.5,0.5 H 553.6327257156372 M 0.5,35.5 V 0.5
M 544.6327257156372,5.5 v 27 h -374.459942817688 M 164.57278289794922,24.3 l 3.68,-2.1"></path><g transform="translate(10,10)"><text class="blocklyText" y="12.5">Serial transmit</text></g><g class="blocklyEditableText" transform="translate(113.71199035644531,10)" style="cursor: default;"><rect rx="4" ry="4" x="-5" y="0" height="16" width="49.960792541503906"></rect><text class="blocklyText" y="12.5" text-anchor="start" x="0">text<tspan style="fill: rgb(153, 38, 76);"> ▾</tspan></text><image y="5" style="display: none;"></image></g><g data-id="B1KXYcWvb;{/N*j79/cn" class="blocklyDraggable" transform="translate(0,37)"><path class="blocklyPathDark" transform="translate(1,1)" fill="#7a1e3d" d="m 0,0 H 15 l 6,4 3,0 6,-4 H 40 H 297.84787940979004 v 36 H 29.5 l -6,4 -3,0 -6,-4 H 0 z
M 287.84787940979004,5 h -38.31081581115723 v 5 c 0,10 -8,-8 -8,7.5 s 8,-2.5 8,7.5 v 7 h 38.31081581115723 z"></path><path class="blocklyPath" stroke="none" fill="#99264c" d="m 0,0 H 15 l 6,4 3,0 6,-4 H 40 H 297.84787940979004 v 36 H 29.5 l -6,4 -3,0 -6,-4 H 0 z
M 287.84787940979004,5 h -38.31081581115723 v 5 c 0,10 -8,-8 -8,7.5 s 8,-2.5 8,7.5 v 7 h 38.31081581115723 z"></path><path class="blocklyPathLight" stroke="#b86782" d="m 0.5,0.5 H 15 l 6,4 3,0 6,-4 H 39.5 M 39.5,0.5 H 297.34787940979004 M 0.5,35.5 V 0.5
M 288.34787940979004,5.5 v 27 h -38.31081581115723 M 244.43706359863282,24.3 l 3.68,-2.1"></path><g transform="translate(10,10)"><text class="blocklyText" y="12.5">Serial transmit</text></g><g class="blocklyEditableText" transform="translate(113.71199035644531,10)" style="cursor: default;"><rect rx="4" ry="4" x="-5" y="0" height="16" width="129.8250732421875"></rect><text class="blocklyText" y="12.5" text-anchor="start" x="0">ASCII character<tspan style="fill: rgb(153, 38, 76);"> ▾</tspan></text><image y="5" style="display: none;"></image></g><g data-id="|Sz%ml!_.FT]Kyi=-!!`" class="blocklyDraggable" transform="translate(250.5370635986328,6)"><path class="blocklyPathDark" transform="translate(1,1)" fill="#1e547a" d="m 0,0 H 36.31081581115723 v 25 H 0 V 20 c 0,-10 -8,8 -8,-7.5 s 8,2.5 8,-7.5 z
"></path><path class="blocklyPath" stroke="none" fill="#266999" d="m 0,0 H 36.31081581115723 v 25 H 0 V 20 c 0,-10 -8,8 -8,-7.5 s 8,2.5 8,-7.5 z
"></path><path class="blocklyPathLight" stroke="#6796b8" d="m 0.5,0.5 H 35.81081581115723 M 35.81081581115723,0.5 M 0.5,24.5 V 18.5 m -7.36,-0.5 q -1.52,-5.5 0,-11 m 7.36,1 V 0.5 H 1
"></path><g class="blocklyEditableText" transform="translate(10,5)" style="cursor: text;"><rect rx="4" ry="4" x="-5" y="0" height="16" width="26.310815811157227"></rect><text class="blocklyText" y="12.5">13</text></g></g><g data-id=".d3kqd6g*stErbtkD4rJ" class="blocklyDraggable" transform="translate(0,37)"><path class="blocklyPathDark" transform="translate(1,1)" fill="#7a1e3d" d="m 0,0 H 15 l 6,4 3,0 6,-4 H 40 H 317.26793384552 v 36 H 29.5 l -6,4 -3,0 -6,-4 H 0 z
M 307.26793384552,5 h -137.5951509475708 v 5 c 0,10 -8,-8 -8,7.5 s 8,-2.5 8,7.5 v 7 h 137.5951509475708 z"></path><path class="blocklyPath" stroke="none" fill="#99264c" d="m 0,0 H 15 l 6,4 3,0 6,-4 H 40 H 317.26793384552 v 36 H 29.5 l -6,4 -3,0 -6,-4 H 0 z
M 307.26793384552,5 h -137.5951509475708 v 5 c 0,10 -8,-8 -8,7.5 s 8,-2.5 8,7.5 v 7 h 137.5951509475708 z"></path><path class="blocklyPathLight" stroke="#b86782" d="m 0.5,0.5 H 15 l 6,4 3,0 6,-4 H 39.5 M 39.5,0.5 H 316.76793384552 M 0.5,35.5 V 0.5
M 307.76793384552,5.5 v 27 h -137.5951509475708 M 164.57278289794922,24.3 l 3.68,-2.1"></path><g transform="translate(10,10)"><text class="blocklyText" y="12.5">Serial transmit</text></g><g class="blocklyEditableText" transform="translate(113.71199035644531,10)" style="cursor: default;"><rect rx="4" ry="4" x="-5" y="0" height="16" width="49.960792541503906"></rect><text class="blocklyText" y="12.5" text-anchor="start" x="0">text<tspan style="fill: rgb(153, 38, 76);"> ▾</tspan></text><image y="5" style="display: none;"></image></g><g data-id="hVae-oNI5Rd34%;cnRV." class="blocklyDraggable" transform="translate(170.67278289794922,6)"><path class="blocklyPathDark" transform="translate(1,1)" fill="#1e547a" d="m 0,0 H 135.5951509475708 v 25 H 0 V 20 c 0,-10 -8,8 -8,-7.5 s 8,2.5 8,-7.5 z
"></path><path class="blocklyPath" stroke="none" fill="#266999" d="m 0,0 H 135.5951509475708 v 25 H 0 V 20 c 0,-10 -8,8 -8,-7.5 s 8,2.5 8,-7.5 z
"></path><path class="blocklyPathLight" stroke="#6796b8" d="m 0.5,0.5 H 135.0951509475708 M 135.0951509475708,0.5 M 0.5,24.5 V 18.5 m -7.36,-0.5 q -1.52,-5.5 0,-11 m 7.36,1 V 0.5 H 1
"></path><g transform="translate(10,5)"><text class="blocklyText" y="12.5">“</text></g><g class="blocklyEditableText" transform="translate(24.88321542739868,5)" style="cursor: text;"><rect rx="4" ry="4" x="-5" y="0" height="16" width="95.82872009277344"></rect><text class="blocklyText" y="12.5">CLEARDATA</text></g><g transform="translate(120.71193552017212,5)"><text class="blocklyText" y="12.5">”</text></g></g><g data-id="nBu+No/lps)aiU=PHnk2" class="blocklyDraggable" transform="translate(0,37)"><path class="blocklyPathDark" transform="translate(1,1)" fill="#1e547a" d="m 0,0 H 15 l 6,4 3,0 6,-4 H 66.31081581115723 H 133.54288482666016 v 25 H 66.31081581115723 l -6,4 -3,0 -6,-4 h -7 a 8,8 0 0,0 -8,8 v 500 a 8,8 0 0,0 8,8 H 66.31081581115723 v 10 H 29.5 l -6,4 -3,0 -6,-4 H 8 a 8,8 0 0,1 -8,-8 z
"></path><path class="blocklyPath" stroke="none" fill="#266999" d="m 0,0 H 15 l 6,4 3,0 6,-4 H 66.31081581115723 H 133.54288482666016 v 25 H 66.31081581115723 l -6,4 -3,0 -6,-4 h -7 a 8,8 0 0,0 -8,8 v 500 a 8,8 0 0,0 8,8 H 66.31081581115723 v 10 H 29.5 l -6,4 -3,0 -6,-4 H 8 a 8,8 0 0,1 -8,-8 z
"></path><path class="blocklyPathLight" stroke="#6796b8" d="m 0.5,0.5 H 15 l 6,4 3,0 6,-4 H 65.81081581115723 M 65.81081581115723,0.5 H 133.04288482666016 M 65.81081581115723,25.5 M 38.300408171071574,539.0104076400856 a 8.5,8.5 0 0,0 6.0104076400856545,2.4895923599143455 H 65.81081581115723 M 2.6966991411008934,548.3033008588991 A 7.5,7.5 0 0,1 0.5,543 V 0.5
"></path><g transform="translate(10,5)"><text class="blocklyText" y="12.5">repeat</text></g><g class="blocklyEditableText" transform="translate(61.5789680480957,5)" style="cursor: default;"><rect rx="4" ry="4" x="-5" y="0" height="16" width="71.96391677856445"></rect><text class="blocklyText" y="12.5" text-anchor="start" x="0">forever<tspan style="fill: rgb(38, 105, 153);"> ▾</tspan></text><image y="5" style="display: none;"></image></g><g transform="translate(10,30)"><text class="blocklyText" y="12.5">do</text></g><g data-id="+E8I*;hA,KnFq5[=F%jk" class="blocklyDraggable" transform="translate(37.31081581115723,26)"><path class="blocklyPathDark" transform="translate(1,1)" fill="#2e1e7a" d="m 0,8 A 8,8 0 0,1 8,0 H 15 l 6,4 3,0 6,-4 H 105.2767448425293 v 5 c 0,10 -8,-8 -8,7.5 s 8,-2.5 8,7.5 v 5 H 29.5 l -6,4 -3,0 -6,-4 H 0 z
"></path><path class="blocklyPath" stroke="none" fill="#392699" d="m 0,8 A 8,8 0 0,1 8,0 H 15 l 6,4 3,0 6,-4 H 105.2767448425293 v 5 c 0,10 -8,-8 -8,7.5 s 8,-2.5 8,7.5 v 5 H 29.5 l -6,4 -3,0 -6,-4 H 0 z
"></path><path class="blocklyPathLight" stroke="#7467b8" d="m 0.5,7.5 A 7.5,7.5 0 0,1 8,0.5 H 15 l 6,4 3,0 6,-4 H 104.7767448425293 M 104.7767448425293,0.5 M 100.2767448425293,19.3 l 3.68,-2.1 M 0.5,24.5 V 8
"></path><g data-id="qHo):pvK7v:rdr+$z1O]" class="blocklyDraggable" transform="translate(106.2767448425293,0)"><path class="blocklyPathDark" transform="translate(1,1)" fill="#1e7a3d" d="m 0,0 H 20 H 275.81672286987305 v 25 H 0 V 20 c 0,-10 -8,8 -8,-7.5 s 8,2.5 8,-7.5 z
"></path><path class="blocklyPath" stroke="none" fill="#26994c" d="m 0,0 H 20 H 275.81672286987305 v 25 H 0 V 20 c 0,-10 -8,8 -8,-7.5 s 8,2.5 8,-7.5 z
"></path><path class="blocklyPathLight" stroke="#67b882" d="m 0.5,0.5 H 19.5 M 19.5,0.5 H 275.31672286987305 M 0.5,24.5 V 18.5 m -7.36,-0.5 q -1.52,-5.5 0,-11 m 7.36,1 V 0.5 H 1
"></path><g transform="translate(10,5)"><text class="blocklyText" y="12.5">Ping))) distance in</text></g><g class="blocklyEditableText" transform="translate(138.1781997680664,5)" style="cursor: default;"><rect rx="4" ry="4" x="-5" y="0" height="16" width="68.71321868896484"></rect><text class="blocklyText" y="12.5" text-anchor="start" x="0">inches<tspan style="fill: rgb(38, 153, 76);"> ▾</tspan></text><image y="5" style="display: none;"></image></g><g transform="translate(206.89141845703125,5)"><text class="blocklyText" y="12.5">PIN</text></g><g class="blocklyEditableText" transform="translate(241.3361701965332,5)" style="cursor: default;"><rect rx="4" ry="4" x="-5" y="0" height="16" width="34.480552673339844"></rect><text class="blocklyText" y="12.5" text-anchor="start" x="0">0<tspan style="fill: rgb(38, 153, 76);"> ▾</tspan></text><image y="5" style="display: none;"></image></g></g><g data-id="#2!VY3mwN4.LSndo~#x6" class="blocklyDraggable" transform="translate(0,26)"><path class="blocklyPathDark" transform="translate(1,1)" fill="#2e1e7a" d="m 0,0 H 15 l 6,4 3,0 6,-4 H 113.41069030761719 v 5 c 0,10 -8,-8 -8,7.5 s 8,-2.5 8,7.5 v 5 H 29.5 l -6,4 -3,0 -6,-4 H 0 z
"></path><path class="blocklyPath" stroke="none" fill="#392699" d="m 0,0 H 15 l 6,4 3,0 6,-4 H 113.41069030761719 v 5 c 0,10 -8,-8 -8,7.5 s 8,-2.5 8,7.5 v 5 H 29.5 l -6,4 -3,0 -6,-4 H 0 z
"></path><path class="blocklyPathLight" stroke="#7467b8" d="m 0.5,0.5 H 15 l 6,4 3,0 6,-4 H 112.91069030761719 M 112.91069030761719,0.5 M 108.41069030761719,19.3 l 3.68,-2.1 M 0.5,24.5 V 0.5
"></path><g data-id="6`wMm;0q!x4=|D)=1)Fd" class="blocklyDraggable" transform="translate(114.41069030761719,0)"><path class="blocklyPathDark" transform="translate(1,1)" fill="#1e7a3d" d="m 0,0 H 20 H 252.9758644104004 v 25 H 0 V 20 c 0,-10 -8,8 -8,-7.5 s 8,2.5 8,-7.5 z
"></path><path class="blocklyPath" stroke="none" fill="#26994c" d="m 0,0 H 20 H 252.9758644104004 v 25 H 0 V 20 c 0,-10 -8,8 -8,-7.5 s 8,2.5 8,-7.5 z
"></path><path class="blocklyPathLight" stroke="#67b882" d="m 0.5,0.5 H 19.5 M 19.5,0.5 H 252.4758644104004 M 0.5,24.5 V 18.5 m -7.36,-0.5 q -1.52,-5.5 0,-11 m 7.36,1 V 0.5 H 1
"></path><g transform="translate(10,5)"><text class="blocklyText" y="12.5">Ping))) distance in</text></g><g class="blocklyEditableText" transform="translate(138.1781997680664,5)" style="cursor: default;"><rect rx="4" ry="4" x="-5" y="0" height="16" width="45.87236022949219"></rect><text class="blocklyText" y="12.5" text-anchor="start" x="0">cm<tspan style="fill: rgb(38, 153, 76);"> ▾</tspan></text><image y="5" style="display: none;"></image></g><g transform="translate(184.0505599975586,5)"><text class="blocklyText" y="12.5">PIN</text></g><g class="blocklyEditableText" transform="translate(218.49531173706055,5)" style="cursor: default;"><rect rx="4" ry="4" x="-5" y="0" height="16" width="34.480552673339844"></rect><text class="blocklyText" y="12.5" text-anchor="start" x="0">0<tspan style="fill: rgb(38, 153, 76);"> ▾</tspan></text><image y="5" style="display: none;"></image></g></g><g data-id="fU|QeNbqTFHb0|$6.joW" class="blocklyDraggable" transform="translate(0,26)"><path class="blocklyPathDark" transform="translate(1,1)" fill="#7a1e3d" d="m 0,0 H 15 l 6,4 3,0 6,-4 H 148.7119903564453 v 25 v 5 c 0,10 -8,-8 -8,7.5 s 8,-2.5 8,7.5 v 6 v 5 c 0,10 -8,-8 -8,7.5 s 8,-2.5 8,7.5 v 6 v 5 c 0,10 -8,-8 -8,7.5 s 8,-2.5 8,7.5 v 6 v 5 c 0,10 -8,-8 -8,7.5 s 8,-2.5 8,7.5 v 6 v 5 c 0,10 -8,-8 -8,7.5 s 8,-2.5 8,7.5 v 6 v 5 c 0,10 -8,-8 -8,7.5 s 8,-2.5 8,7.5 v 6 v 5 c 0,10 -8,-8 -8,7.5 s 8,-2.5 8,7.5 v 6 v 5 c 0,10 -8,-8 -8,7.5 s 8,-2.5 8,7.5 v 5 H 29.5 l -6,4 -3,0 -6,-4 H 0 z
"></path><path class="blocklyPath" stroke="none" fill="#99264c" d="m 0,0 H 15 l 6,4 3,0 6,-4 H 148.7119903564453 v 25 v 5 c 0,10 -8,-8 -8,7.5 s 8,-2.5 8,7.5 v 6 v 5 c 0,10 -8,-8 -8,7.5 s 8,-2.5 8,7.5 v 6 v 5 c 0,10 -8,-8 -8,7.5 s 8,-2.5 8,7.5 v 6 v 5 c 0,10 -8,-8 -8,7.5 s 8,-2.5 8,7.5 v 6 v 5 c 0,10 -8,-8 -8,7.5 s 8,-2.5 8,7.5 v 6 v 5 c 0,10 -8,-8 -8,7.5 s 8,-2.5 8,7.5 v 6 v 5 c 0,10 -8,-8 -8,7.5 s 8,-2.5 8,7.5 v 6 v 5 c 0,10 -8,-8 -8,7.5 s 8,-2.5 8,7.5 v 5 H 29.5 l -6,4 -3,0 -6,-4 H 0 z
"></path><path class="blocklyPathLight" stroke="#b86782" d="m 0.5,0.5 H 15 l 6,4 3,0 6,-4 H 148.2119903564453 M 148.2119903564453,0.5 M 148.2119903564453,25.5 M 143.7119903564453,44.3 l 3.68,-2.1 M 148.2119903564453,51.5 M 143.7119903564453,70.3 l 3.68,-2.1 M 148.2119903564453,77.5 M 143.7119903564453,96.3 l 3.68,-2.1 M 148.2119903564453,103.5 M 143.7119903564453,122.3 l 3.68,-2.1 M 148.2119903564453,129.5 M 143.7119903564453,148.3 l 3.68,-2.1 M 148.2119903564453,155.5 M 143.7119903564453,174.3 l 3.68,-2.1 M 148.2119903564453,181.5 M 143.7119903564453,200.3 l 3.68,-2.1 M 148.2119903564453,207.5 M 143.7119903564453,226.3 l 3.68,-2.1 M 0.5,231.5 V 0.5
"></path><g class="blocklyIconGroup" display="block" transform="translate(10,5)"><rect class="blocklyIconShape" rx="4" ry="4" height="16" width="16"></rect><path class="blocklyIconSymbol" d="m4.203,7.296 0,1.368 -0.92,0.677 -0.11,0.41 0.9,1.559 0.41,0.11 1.043,-0.457 1.187,0.683 0.127,1.134 0.3,0.3 1.8,0 0.3,-0.299 0.127,-1.138 1.185,-0.682 1.046,0.458 0.409,-0.11 0.9,-1.559 -0.11,-0.41 -0.92,-0.677 0,-1.366 0.92,-0.677 0.11,-0.41 -0.9,-1.559 -0.409,-0.109 -1.046,0.458 -1.185,-0.682 -0.127,-1.138 -0.3,-0.299 -1.8,0 -0.3,0.3 -0.126,1.135 -1.187,0.682 -1.043,-0.457 -0.41,0.11 -0.899,1.559 0.108,0.409z"></path><circle class="blocklyIconShape" r="2.7" cx="8" cy="8"></circle></g><g transform="translate(37,5)"><text class="blocklyText" y="12.5">Serial transmit</text></g><g transform="translate(107.07634544372559,30)"><text class="blocklyText" y="12.5">text</text></g><g transform="translate(26.388641357421875,56)"><text class="blocklyText" y="12.5">decimal number</text></g><g transform="translate(107.07634544372559,82)"><text class="blocklyText" y="12.5">text</text></g><g transform="translate(26.388641357421875,108)"><text class="blocklyText" y="12.5">decimal number</text></g><g transform="translate(107.07634544372559,134)"><text class="blocklyText" y="12.5">text</text></g><g transform="translate(27.212066650390625,160)"><text class="blocklyText" y="12.5">ASCII character</text></g><g transform="translate(107.07634544372559,186)"><text class="blocklyText" y="12.5">text</text></g><g transform="translate(27.212066650390625,212)"><text class="blocklyText" y="12.5">ASCII character</text></g><g data-id="{nE%szwhm=wJY_BDJJLF" class="blocklyDraggable" transform="translate(149.7119903564453,25)"><path class="blocklyPathDark" transform="translate(1,1)" fill="#1e547a" d="m 0,0 H 187.18400287628174 v 25 H 0 V 20 c 0,-10 -8,8 -8,-7.5 s 8,2.5 8,-7.5 z
"></path><path class="blocklyPath" stroke="none" fill="#266999" d="m 0,0 H 187.18400287628174 v 25 H 0 V 20 c 0,-10 -8,8 -8,-7.5 s 8,2.5 8,-7.5 z
"></path><path class="blocklyPathLight" stroke="#6796b8" d="m 0.5,0.5 H 186.68400287628174 M 186.68400287628174,0.5 M 0.5,24.5 V 18.5 m -7.36,-0.5 q -1.52,-5.5 0,-11 m 7.36,1 V 0.5 H 1
"></path><g transform="translate(10,5)"><text class="blocklyText" y="12.5">“</text></g><g class="blocklyEditableText" transform="translate(24.88321542739868,5)" style="cursor: text;"><rect rx="4" ry="4" x="-5" y="0" height="16" width="147.41757202148438"></rect><text class="blocklyText" y="12.5">DATA, TIME, TIMER,</text></g><g transform="translate(172.30078744888306,5)"><text class="blocklyText" y="12.5">”</text></g></g><g data-id="T{2)!N`R,?@WK%s^krEG" class="blocklyDraggable" transform="translate(149.7119903564453,51)"><path class="blocklyPathDark" transform="translate(1,1)" fill="#2e1e7a" d="m 0,0 H 78.71320724487305 v 25 H 0 V 20 c 0,-10 -8,8 -8,-7.5 s 8,2.5 8,-7.5 z
"></path><path class="blocklyPath" stroke="none" fill="#392699" d="m 0,0 H 78.71320724487305 v 25 H 0 V 20 c 0,-10 -8,8 -8,-7.5 s 8,2.5 8,-7.5 z
"></path><path class="blocklyPathLight" stroke="#7467b8" d="m 0.5,0.5 H 78.21320724487305 M 78.21320724487305,0.5 M 0.5,24.5 V 18.5 m -7.36,-0.5 q -1.52,-5.5 0,-11 m 7.36,1 V 0.5 H 1
"></path><g class="blocklyEditableText" transform="translate(10,5)" style="cursor: default;"><rect rx="4" ry="4" x="-5" y="0" height="16" width="68.71320724487305"></rect><text class="blocklyText" y="12.5" text-anchor="start" x="0">dist_in<tspan style="fill: rgb(57, 38, 153);"> ▾</tspan></text><image y="5" style="display: none;"></image></g></g><g data-id="aGX5iIk$,$-lc7MWlUu2" class="blocklyDraggable" transform="translate(149.7119903564453,77)"><path class="blocklyPathDark" transform="translate(1,1)" fill="#1e547a" d="m 0,0 H 53.84055185317993 v 25 H 0 V 20 c 0,-10 -8,8 -8,-7.5 s 8,2.5 8,-7.5 z
"></path><path class="blocklyPath" stroke="none" fill="#266999" d="m 0,0 H 53.84055185317993 v 25 H 0 V 20 c 0,-10 -8,8 -8,-7.5 s 8,2.5 8,-7.5 z
"></path><path class="blocklyPathLight" stroke="#6796b8" d="m 0.5,0.5 H 53.34055185317993 M 53.34055185317993,0.5 M 0.5,24.5 V 18.5 m -7.36,-0.5 q -1.52,-5.5 0,-11 m 7.36,1 V 0.5 H 1
"></path><g transform="translate(10,5)"><text class="blocklyText" y="12.5">“</text></g><g class="blocklyEditableText" transform="translate(24.88321542739868,5)" style="cursor: text;"><rect rx="4" ry="4" x="-5" y="0" height="16" width="14.074120998382568"></rect><text class="blocklyText" y="12.5">,</text></g><g transform="translate(38.95733642578125,5)"><text class="blocklyText" y="12.5">”</text></g></g><g data-id="czFjbal/od~3U`@1:jle" class="blocklyDraggable" transform="translate(149.7119903564453,103)"><path class="blocklyPathDark" transform="translate(1,1)" fill="#2e1e7a" d="m 0,0 H 86.84715270996094 v 25 H 0 V 20 c 0,-10 -8,8 -8,-7.5 s 8,2.5 8,-7.5 z
"></path><path class="blocklyPath" stroke="none" fill="#392699" d="m 0,0 H 86.84715270996094 v 25 H 0 V 20 c 0,-10 -8,8 -8,-7.5 s 8,2.5 8,-7.5 z
"></path><path class="blocklyPathLight" stroke="#7467b8" d="m 0.5,0.5 H 86.34715270996094 M 86.34715270996094,0.5 M 0.5,24.5 V 18.5 m -7.36,-0.5 q -1.52,-5.5 0,-11 m 7.36,1 V 0.5 H 1
"></path><g class="blocklyEditableText" transform="translate(10,5)" style="cursor: default;"><rect rx="4" ry="4" x="-5" y="0" height="16" width="76.84715270996094"></rect><text class="blocklyText" y="12.5" text-anchor="start" x="0">dist_cm<tspan style="fill: rgb(57, 38, 153);"> ▾</tspan></text><image y="5" style="display: none;"></image></g></g><g data-id="H-`V%XkgTz5m7+Ba9c=o" class="blocklyDraggable" transform="translate(149.7119903564453,129)"><path class="blocklyPathDark" transform="translate(1,1)" fill="#1e547a" d="m 0,0 H 53.84055185317993 v 25 H 0 V 20 c 0,-10 -8,8 -8,-7.5 s 8,2.5 8,-7.5 z
"></path><path class="blocklyPath" stroke="none" fill="#266999" d="m 0,0 H 53.84055185317993 v 25 H 0 V 20 c 0,-10 -8,8 -8,-7.5 s 8,2.5 8,-7.5 z
"></path><path class="blocklyPathLight" stroke="#6796b8" d="m 0.5,0.5 H 53.34055185317993 M 53.34055185317993,0.5 M 0.5,24.5 V 18.5 m -7.36,-0.5 q -1.52,-5.5 0,-11 m 7.36,1 V 0.5 H 1
"></path><g transform="translate(10,5)"><text class="blocklyText" y="12.5">“</text></g><g class="blocklyEditableText" transform="translate(24.88321542739868,5)" style="cursor: text;"><rect rx="4" ry="4" x="-5" y="0" height="16" width="14.074120998382568"></rect><text class="blocklyText" y="12.5">,</text></g><g transform="translate(38.95733642578125,5)"><text class="blocklyText" y="12.5">”</text></g></g><g data-id="pp79CH^}{G|;@oAhI;Gn" class="blocklyDraggable" transform="translate(149.7119903564453,155)"><path class="blocklyPathDark" transform="translate(1,1)" fill="#1e547a" d="m 0,0 H 36.31081581115723 v 25 H 0 V 20 c 0,-10 -8,8 -8,-7.5 s 8,2.5 8,-7.5 z
"></path><path class="blocklyPath" stroke="none" fill="#266999" d="m 0,0 H 36.31081581115723 v 25 H 0 V 20 c 0,-10 -8,8 -8,-7.5 s 8,2.5 8,-7.5 z
"></path><path class="blocklyPathLight" stroke="#6796b8" d="m 0.5,0.5 H 35.81081581115723 M 35.81081581115723,0.5 M 0.5,24.5 V 18.5 m -7.36,-0.5 q -1.52,-5.5 0,-11 m 7.36,1 V 0.5 H 1
"></path><g class="blocklyEditableText" transform="translate(10,5)" style="cursor: text;"><rect rx="4" ry="4" x="-5" y="0" height="16" width="26.310815811157227"></rect><text class="blocklyText" y="12.5">13</text></g></g><g data-id="L]Ogjl8I603-2:WQnH|%" class="blocklyDraggable" transform="translate(149.7119903564453,181)"><path class="blocklyPathDark" transform="translate(1,1)" fill="#1e547a" d="m 0,0 H 125.53515338897705 v 25 H 0 V 20 c 0,-10 -8,8 -8,-7.5 s 8,2.5 8,-7.5 z
"></path><path class="blocklyPath" stroke="none" fill="#266999" d="m 0,0 H 125.53515338897705 v 25 H 0 V 20 c 0,-10 -8,8 -8,-7.5 s 8,2.5 8,-7.5 z
"></path><path class="blocklyPathLight" stroke="#6796b8" d="m 0.5,0.5 H 125.03515338897705 M 125.03515338897705,0.5 M 0.5,24.5 V 18.5 m -7.36,-0.5 q -1.52,-5.5 0,-11 m 7.36,1 V 0.5 H 1
"></path><g transform="translate(10,5)"><text class="blocklyText" y="12.5">“</text></g><g class="blocklyEditableText" transform="translate(24.88321542739868,5)" style="cursor: text;"><rect rx="4" ry="4" x="-5" y="0" height="16" width="85.76872253417969"></rect><text class="blocklyText" y="12.5">ROW,GET, </text></g><g transform="translate(110.65193796157837,5)"><text class="blocklyText" y="12.5">”</text></g></g><g data-id="X@F4T|.r7b%%`]XHXnPY" class="blocklyDraggable" transform="translate(149.7119903564453,207)"><path class="blocklyPathDark" transform="translate(1,1)" fill="#1e547a" d="m 0,0 H 36.31081581115723 v 25 H 0 V 20 c 0,-10 -8,8 -8,-7.5 s 8,2.5 8,-7.5 z
"></path><path class="blocklyPath" stroke="none" fill="#266999" d="m 0,0 H 36.31081581115723 v 25 H 0 V 20 c 0,-10 -8,8 -8,-7.5 s 8,2.5 8,-7.5 z
"></path><path class="blocklyPathLight" stroke="#6796b8" d="m 0.5,0.5 H 35.81081581115723 M 35.81081581115723,0.5 M 0.5,24.5 V 18.5 m -7.36,-0.5 q -1.52,-5.5 0,-11 m 7.36,1 V 0.5 H 1
"></path><g class="blocklyEditableText" transform="translate(10,5)" style="cursor: text;"><rect rx="4" ry="4" x="-5" y="0" height="16" width="26.310815811157227"></rect><text class="blocklyText" y="12.5">13</text></g></g><g data-id="@|ZSvV[IBWiQ}Uw,Q*Ln" class="blocklyDraggable" transform="translate(0,233)"><path class="blocklyPathDark" transform="translate(1,1)" fill="#7a1e3d" d="m 0,0 H 15 l 6,4 3,0 6,-4 H 40 H 353.2322463989258 v 25 H 29.5 l -6,4 -3,0 -6,-4 H 0 z
"></path><path class="blocklyPath" stroke="none" fill="#99264c" d="m 0,0 H 15 l 6,4 3,0 6,-4 H 40 H 353.2322463989258 v 25 H 29.5 l -6,4 -3,0 -6,-4 H 0 z
"></path><path class="blocklyPathLight" stroke="#b86782" d="m 0.5,0.5 H 15 l 6,4 3,0 6,-4 H 39.5 M 39.5,0.5 H 352.7322463989258 M 0.5,24.5 V 0.5
"></path><g transform="translate(10,5)"><text class="blocklyText" y="12.5">Serial receive</text></g><g class="blocklyEditableText" transform="translate(108.83592224121094,5)" style="cursor: default;"><rect rx="4" ry="4" x="-5" y="0" height="16" width="130.64849853515625"></rect><text class="blocklyText" y="12.5" text-anchor="start" x="0">decimal number<tspan style="fill: rgb(153, 38, 76);"> ▾</tspan></text><image y="5" style="display: none;"></image></g><g transform="translate(239.4844207763672,5)"><text class="blocklyText" y="12.5">store in</text></g><g class="blocklyEditableText" transform="translate(297.5719566345215,5)" style="cursor: default;"><rect rx="4" ry="4" x="-5" y="0" height="16" width="55.6602897644043"></rect><text class="blocklyText" y="12.5" text-anchor="start" x="0">Row<tspan style="fill: rgb(153, 38, 76);"> ▾</tspan></text><image y="5" style="display: none;"></image></g><g data-id="O:n00nb+dS6{)?eK1C3|" class="blocklyDraggable" transform="translate(0,26)"><path class="blocklyPathDark" transform="translate(1,1)" fill="#1e547a" d="m 0,0 H 15 l 6,4 3,0 6,-4 H 40 H 155.80761528015137 v 36 H 29.5 l -6,4 -3,0 -6,-4 H 0 z
M 145.80761528015137,5 h -46.46622276306152 v 5 c 0,10 -8,-8 -8,7.5 s 8,-2.5 8,7.5 v 7 h 46.46622276306152 z"></path><path class="blocklyPath" stroke="none" fill="#266999" d="m 0,0 H 15 l 6,4 3,0 6,-4 H 40 H 155.80761528015137 v 36 H 29.5 l -6,4 -3,0 -6,-4 H 0 z
M 145.80761528015137,5 h -46.46622276306152 v 5 c 0,10 -8,-8 -8,7.5 s 8,-2.5 8,7.5 v 7 h 46.46622276306152 z"></path><path class="blocklyPathLight" stroke="#6796b8" d="m 0.5,0.5 H 15 l 6,4 3,0 6,-4 H 39.5 M 39.5,0.5 H 155.30761528015137 M 0.5,35.5 V 0.5
M 146.30761528015137,5.5 v 27 h -46.46622276306152 M 94.24139251708985,24.3 l 3.68,-2.1"></path><g data-id="m#~0|cF{q.ND=h;6vprG" class="blocklyDraggable" transform="translate(100.34139251708984,6)"><path class="blocklyPathDark" transform="translate(1,1)" fill="#1e547a" d="m 0,0 H 44.46622276306152 v 25 H 0 V 20 c 0,-10 -8,8 -8,-7.5 s 8,2.5 8,-7.5 z
"></path><path class="blocklyPath" stroke="none" fill="#266999" d="m 0,0 H 44.46622276306152 v 25 H 0 V 20 c 0,-10 -8,8 -8,-7.5 s 8,2.5 8,-7.5 z
"></path><path class="blocklyPathLight" stroke="#6796b8" d="m 0.5,0.5 H 43.96622276306152 M 43.96622276306152,0.5 M 0.5,24.5 V 18.5 m -7.36,-0.5 q -1.52,-5.5 0,-11 m 7.36,1 V 0.5 H 1
"></path><g class="blocklyEditableText" transform="translate(10,5)" style="cursor: text;"><rect rx="4" ry="4" x="-5" y="0" height="16" width="34.46622276306152"></rect><text class="blocklyText" y="12.5">200</text></g></g><g data-id="n3[@saQS4i:_2Gyxqsr0" class="blocklyDraggable" transform="translate(0,37)"><path class="blocklyPathDark" transform="translate(1,1)" fill="#1e547a" d="m 0,0 H 15 l 6,4 3,0 6,-4 H 66.31081581115723 v 5 c 0,10 -8,-8 -8,7.5 s 8,-2.5 8,7.5 v 16 H 66.31081581115723 l -6,4 -3,0 -6,-4 h -7 a 8,8 0 0,0 -8,8 v 64 a 8,8 0 0,0 8,8 H 66.31081581115723 v 10 H 29.5 l -6,4 -3,0 -6,-4 H 0 z
"></path><path class="blocklyPath" stroke="none" fill="#266999" d="m 0,0 H 15 l 6,4 3,0 6,-4 H 66.31081581115723 v 5 c 0,10 -8,-8 -8,7.5 s 8,-2.5 8,7.5 v 16 H 66.31081581115723 l -6,4 -3,0 -6,-4 h -7 a 8,8 0 0,0 -8,8 v 64 a 8,8 0 0,0 8,8 H 66.31081581115723 v 10 H 29.5 l -6,4 -3,0 -6,-4 H 0 z
"></path><path class="blocklyPathLight" stroke="#6796b8" d="m 0.5,0.5 H 15 l 6,4 3,0 6,-4 H 65.81081581115723 M 65.81081581115723,0.5 M 61.31081581115723,19.3 l 3.68,-2.1 M 65.81081581115723,36.5 M 38.300408171071574,114.01040764008566 a 8.5,8.5 0 0,0 6.0104076400856545,2.4895923599143455 H 65.81081581115723 M 0.5,125.5 V 0.5
"></path><g class="blocklyIconGroup" display="block" transform="translate(10,5)"><rect class="blocklyIconShape" rx="4" ry="4" height="16" width="16"></rect><path class="blocklyIconSymbol" d="m4.203,7.296 0,1.368 -0.92,0.677 -0.11,0.41 0.9,1.559 0.41,0.11 1.043,-0.457 1.187,0.683 0.127,1.134 0.3,0.3 1.8,0 0.3,-0.299 0.127,-1.138 1.185,-0.682 1.046,0.458 0.409,-0.11 0.9,-1.559 -0.11,-0.41 -0.92,-0.677 0,-1.366 0.92,-0.677 0.11,-0.41 -0.9,-1.559 -0.409,-0.109 -1.046,0.458 -1.185,-0.682 -0.127,-1.138 -0.3,-0.299 -1.8,0 -0.3,0.3 -0.126,1.135 -1.187,0.682 -1.043,-0.457 -0.41,0.11 -0.899,1.559 0.108,0.409z"></path><circle class="blocklyIconShape" r="2.7" cx="8" cy="8"></circle></g><g data-id="0%qV+9KmNMcv%+dIG*HW" class="blocklyDraggable" transform="translate(67.31081581115723,0)"><path class="blocklyPathDark" transform="translate(1,1)" fill="#541e7a" d="m 0,0 H 20 H 182.85978889465332 v 36 H 0 V 20 c 0,-10 -8,8 -8,-7.5 s 8,2.5 8,-7.5 z
M 83.6602897644043,5 h -67.6602897644043 v 5 c 0,10 -8,-8 -8,7.5 s 8,-2.5 8,7.5 v 7 h 67.6602897644043 z M 172.85978889465332,5 h -38.31081581115723 v 5 c 0,10 -8,-8 -8,7.5 s 8,-2.5 8,7.5 v 7 h 38.31081581115723 z"></path><path class="blocklyPath" stroke="none" fill="#692699" d="m 0,0 H 20 H 182.85978889465332 v 36 H 0 V 20 c 0,-10 -8,8 -8,-7.5 s 8,2.5 8,-7.5 z
M 83.6602897644043,5 h -67.6602897644043 v 5 c 0,10 -8,-8 -8,7.5 s 8,-2.5 8,7.5 v 7 h 67.6602897644043 z M 172.85978889465332,5 h -38.31081581115723 v 5 c 0,10 -8,-8 -8,7.5 s 8,-2.5 8,7.5 v 7 h 38.31081581115723 z"></path><path class="blocklyPathLight" stroke="#9667b8" d="m 0.5,0.5 H 19.5 M 19.5,0.5 H 182.35978889465332 M 0.5,35.5 V 18.5 m -7.36,-0.5 q -1.52,-5.5 0,-11 m 7.36,1 V 0.5 H 1
M 84.1602897644043,5.5 v 27 h -67.6602897644043 M 10.9,24.3 l 3.68,-2.1 M 173.35978889465332,5.5 v 27 h -38.31081581115723 M 129.4489730834961,24.3 l 3.68,-2.1"></path><g data-id="QQ=bZ9Y?EjavjP~HLMKq" class="blocklyDraggable" transform="translate(17,6)"><path class="blocklyPathDark" transform="translate(1,1)" fill="#2e1e7a" d="m 0,0 H 65.6602897644043 v 25 H 0 V 20 c 0,-10 -8,8 -8,-7.5 s 8,2.5 8,-7.5 z
"></path><path class="blocklyPath" stroke="none" fill="#392699" d="m 0,0 H 65.6602897644043 v 25 H 0 V 20 c 0,-10 -8,8 -8,-7.5 s 8,2.5 8,-7.5 z
"></path><path class="blocklyPathLight" stroke="#7467b8" d="m 0.5,0.5 H 65.1602897644043 M 65.1602897644043,0.5 M 0.5,24.5 V 18.5 m -7.36,-0.5 q -1.52,-5.5 0,-11 m 7.36,1 V 0.5 H 1
"></path><g class="blocklyEditableText" transform="translate(10,5)" style="cursor: default;"><rect rx="4" ry="4" x="-5" y="0" height="16" width="55.6602897644043"></rect><text class="blocklyText" y="12.5" text-anchor="start" x="0">Row<tspan style="fill: rgb(57, 38, 153);"> ▾</tspan></text><image y="5" style="display: none;"></image></g></g><g data-id="`sc%!]]ZE+mfz_@1RtOY" class="blocklyDraggable" transform="translate(135.5489730834961,6)"><path class="blocklyPathDark" transform="translate(1,1)" fill="#1e547a" d="m 0,0 H 36.31081581115723 v 25 H 0 V 20 c 0,-10 -8,8 -8,-7.5 s 8,2.5 8,-7.5 z
"></path><path class="blocklyPath" stroke="none" fill="#266999" d="m 0,0 H 36.31081581115723 v 25 H 0 V 20 c 0,-10 -8,8 -8,-7.5 s 8,2.5 8,-7.5 z
"></path><path class="blocklyPathLight" stroke="#6796b8" d="m 0.5,0.5 H 35.81081581115723 M 35.81081581115723,0.5 M 0.5,24.5 V 18.5 m -7.36,-0.5 q -1.52,-5.5 0,-11 m 7.36,1 V 0.5 H 1
"></path><g class="blocklyEditableText" transform="translate(10,5)" style="cursor: text;"><rect rx="4" ry="4" x="-5" y="0" height="16" width="26.310815811157227"></rect><text class="blocklyText" y="12.5">25</text></g></g><g class="blocklyEditableText" transform="translate(93.6602897644043,10)" style="cursor: default;"><rect rx="4" ry="4" x="-5" y="0" height="16" width="34.8886833190918"></rect><text class="blocklyText" y="12.5" text-anchor="start" x="0">&gt;<tspan style="fill: rgb(105, 38, 153);"> ▾</tspan></text><image y="5" style="display: none;"></image></g></g><g data-id=".`tKXo/)i_=T!RvhHu0s" class="blocklyDraggable" transform="translate(37.31081581115723,37)"><path class="blocklyPathDark" transform="translate(1,1)" fill="#7a1e3d" d="m 0,8 A 8,8 0 0,1 8,0 H 15 l 6,4 3,0 6,-4 H 148.7119903564453 v 25 v 5 c 0,10 -8,-8 -8,7.5 s 8,-2.5 8,7.5 v 6 v 5 c 0,10 -8,-8 -8,7.5 s 8,-2.5 8,7.5 v 5 H 29.5 l -6,4 -3,0 -6,-4 H 8 a 8,8 0 0,1 -8,-8 z
"></path><path class="blocklyPath" stroke="none" fill="#99264c" d="m 0,8 A 8,8 0 0,1 8,0 H 15 l 6,4 3,0 6,-4 H 148.7119903564453 v 25 v 5 c 0,10 -8,-8 -8,7.5 s 8,-2.5 8,7.5 v 6 v 5 c 0,10 -8,-8 -8,7.5 s 8,-2.5 8,7.5 v 5 H 29.5 l -6,4 -3,0 -6,-4 H 8 a 8,8 0 0,1 -8,-8 z
"></path><path class="blocklyPathLight" stroke="#b86782" d="m 0.5,7.5 A 7.5,7.5 0 0,1 8,0.5 H 15 l 6,4 3,0 6,-4 H 148.2119903564453 M 148.2119903564453,0.5 M 148.2119903564453,25.5 M 143.7119903564453,44.3 l 3.68,-2.1 M 148.2119903564453,51.5 M 143.7119903564453,70.3 l 3.68,-2.1 M 2.6966991411008934,73.3033008588991 A 7.5,7.5 0 0,1 0.5,68 V 8
"></path><g class="blocklyIconGroup" display="block" transform="translate(10,5)"><rect class="blocklyIconShape" rx="4" ry="4" height="16" width="16"></rect><path class="blocklyIconSymbol" d="m4.203,7.296 0,1.368 -0.92,0.677 -0.11,0.41 0.9,1.559 0.41,0.11 1.043,-0.457 1.187,0.683 0.127,1.134 0.3,0.3 1.8,0 0.3,-0.299 0.127,-1.138 1.185,-0.682 1.046,0.458 0.409,-0.11 0.9,-1.559 -0.11,-0.41 -0.92,-0.677 0,-1.366 0.92,-0.677 0.11,-0.41 -0.9,-1.559 -0.409,-0.109 -1.046,0.458 -1.185,-0.682 -0.127,-1.138 -0.3,-0.299 -1.8,0 -0.3,0.3 -0.126,1.135 -1.187,0.682 -1.043,-0.457 -0.41,0.11 -0.899,1.559 0.108,0.409z"></path><circle class="blocklyIconShape" r="2.7" cx="8" cy="8"></circle></g><g transform="translate(37,5)"><text class="blocklyText" y="12.5">Serial transmit</text></g><g transform="translate(107.07634544372559,30)"><text class="blocklyText" y="12.5">text</text></g><g transform="translate(27.212066650390625,56)"><text class="blocklyText" y="12.5">ASCII character</text></g><g data-id="zx9^OWN*jT{_ae%th]@M" class="blocklyDraggable" transform="translate(149.7119903564453,25)"><path class="blocklyPathDark" transform="translate(1,1)" fill="#1e547a" d="m 0,0 H 132.0651979446411 v 25 H 0 V 20 c 0,-10 -8,8 -8,-7.5 s 8,2.5 8,-7.5 z
"></path><path class="blocklyPath" stroke="none" fill="#266999" d="m 0,0 H 132.0651979446411 v 25 H 0 V 20 c 0,-10 -8,8 -8,-7.5 s 8,2.5 8,-7.5 z
"></path><path class="blocklyPathLight" stroke="#6796b8" d="m 0.5,0.5 H 131.5651979446411 M 131.5651979446411,0.5 M 0.5,24.5 V 18.5 m -7.36,-0.5 q -1.52,-5.5 0,-11 m 7.36,1 V 0.5 H 1
"></path><g transform="translate(10,5)"><text class="blocklyText" y="12.5">“</text></g><g class="blocklyEditableText" transform="translate(24.88321542739868,5)" style="cursor: text;"><rect rx="4" ry="4" x="-5" y="0" height="16" width="92.29876708984375"></rect><text class="blocklyText" y="12.5">ROW,SET,2,</text></g><g transform="translate(117.18198251724243,5)"><text class="blocklyText" y="12.5">”</text></g></g><g data-id=":$`HOeu2-wcDFxS{k}R0" class="blocklyDraggable" transform="translate(149.7119903564453,51)"><path class="blocklyPathDark" transform="translate(1,1)" fill="#1e547a" d="m 0,0 H 36.31081581115723 v 25 H 0 V 20 c 0,-10 -8,8 -8,-7.5 s 8,2.5 8,-7.5 z
"></path><path class="blocklyPath" stroke="none" fill="#266999" d="m 0,0 H 36.31081581115723 v 25 H 0 V 20 c 0,-10 -8,8 -8,-7.5 s 8,2.5 8,-7.5 z
"></path><path class="blocklyPathLight" stroke="#6796b8" d="m 0.5,0.5 H 35.81081581115723 M 35.81081581115723,0.5 M 0.5,24.5 V 18.5 m -7.36,-0.5 q -1.52,-5.5 0,-11 m 7.36,1 V 0.5 H 1
"></path><g class="blocklyEditableText" transform="translate(10,5)" style="cursor: text;"><rect rx="4" ry="4" x="-5" y="0" height="16" width="26.310815811157227"></rect><text class="blocklyText" y="12.5">13</text></g></g></g><g data-id="S2f65zQASzPf8UcoXTY2" class="blocklyDraggable" transform="translate(0,127)"><path class="blocklyPathDark" transform="translate(1,1)" fill="#1e547a" d="m 0,0 H 15 l 6,4 3,0 6,-4 H 40 H 155.80761528015137 v 36 H 29.5 l -6,4 -3,0 -6,-4 H 8 a 8,8 0 0,1 -8,-8 z
M 145.80761528015137,5 h -46.46622276306152 v 5 c 0,10 -8,-8 -8,7.5 s 8,-2.5 8,7.5 v 7 h 46.46622276306152 z"></path><path class="blocklyPath" stroke="none" fill="#266999" d="m 0,0 H 15 l 6,4 3,0 6,-4 H 40 H 155.80761528015137 v 36 H 29.5 l -6,4 -3,0 -6,-4 H 8 a 8,8 0 0,1 -8,-8 z
M 145.80761528015137,5 h -46.46622276306152 v 5 c 0,10 -8,-8 -8,7.5 s 8,-2.5 8,7.5 v 7 h 46.46622276306152 z"></path><path class="blocklyPathLight" stroke="#6796b8" d="m 0.5,0.5 H 15 l 6,4 3,0 6,-4 H 39.5 M 39.5,0.5 H 155.30761528015137 M 2.6966991411008934,33.30330085889911 A 7.5,7.5 0 0,1 0.5,28 V 0.5
M 146.30761528015137,5.5 v 27 h -46.46622276306152 M 94.24139251708985,24.3 l 3.68,-2.1"></path><g data-id="2./@Db.J15qXcF|DY_I{" class="blocklyDraggable" transform="translate(100.34139251708984,6)"><path class="blocklyPathDark" transform="translate(1,1)" fill="#1e547a" d="m 0,0 H 44.46622276306152 v 25 H 0 V 20 c 0,-10 -8,8 -8,-7.5 s 8,2.5 8,-7.5 z
"></path><path class="blocklyPath" stroke="none" fill="#266999" d="m 0,0 H 44.46622276306152 v 25 H 0 V 20 c 0,-10 -8,8 -8,-7.5 s 8,2.5 8,-7.5 z
"></path><path class="blocklyPathLight" stroke="#6796b8" d="m 0.5,0.5 H 43.96622276306152 M 43.96622276306152,0.5 M 0.5,24.5 V 18.5 m -7.36,-0.5 q -1.52,-5.5 0,-11 m 7.36,1 V 0.5 H 1
"></path><g class="blocklyEditableText" transform="translate(10,5)" style="cursor: text;"><rect rx="4" ry="4" x="-5" y="0" height="16" width="34.46622276306152"></rect><text class="blocklyText" y="12.5">300</text></g></g><g transform="translate(10,10)"><text class="blocklyText" y="12.5">pause (ms)</text></g></g><g transform="translate(37,5)"><text class="blocklyText" y="12.5">if</text></g><g transform="translate(10,41)"><text class="blocklyText" y="12.5">do</text></g></g><g transform="translate(10,10)"><text class="blocklyText" y="12.5">pause (ms)</text></g></g></g></g><g class="blocklyEditableText" transform="translate(10,5)" style="cursor: default;"><rect rx="4" ry="4" x="-5" y="0" height="16" width="76.84715270996094"></rect><text class="blocklyText" y="12.5" text-anchor="start" x="0">dist_cm<tspan style="fill: rgb(57, 38, 153);"> ▾</tspan></text><image y="5" style="display: none;"></image></g><g transform="translate(86.84715270996094,5)"><text class="blocklyText" y="12.5">=</text></g></g><g class="blocklyEditableText" transform="translate(10,5)" style="cursor: default;"><rect rx="4" ry="4" x="-5" y="0" height="16" width="68.71320724487305"></rect><text class="blocklyText" y="12.5" text-anchor="start" x="0">dist_in<tspan style="fill: rgb(57, 38, 153);"> ▾</tspan></text><image y="5" style="display: none;"></image></g><g transform="translate(78.71320724487305,5)"><text class="blocklyText" y="12.5">=</text></g></g></g></g></g><g data-id="4Rpq?Y%_P]$CMvpBy[04" class="blocklyDraggable blocklySelected" transform="translate(170.67278289794922,6)"><path class="blocklyPathDark" transform="translate(1,1)" fill="#1e547a" d="m 0,0 H 372.459942817688 v 25 H 0 V 20 c 0,-10 -8,8 -8,-7.5 s 8,2.5 8,-7.5 z
"></path><path class="blocklyPath" stroke="none" fill="#266999" d="m 0,0 H 372.459942817688 v 25 H 0 V 20 c 0,-10 -8,8 -8,-7.5 s 8,2.5 8,-7.5 z
"></path><path class="blocklyPathLight" stroke="#6796b8" d="m 0.5,0.5 H 371.959942817688 M 371.959942817688,0.5 M 0.5,24.5 V 18.5 m -7.36,-0.5 q -1.52,-5.5 0,-11 m 7.36,1 V 0.5 H 1
"></path><g transform="translate(10,5)"><text class="blocklyText" y="12.5">“</text></g><g class="blocklyEditableText" transform="translate(24.88321542739868,5)" style="cursor: text;"><rect rx="4" ry="4" x="-5" y="0" height="16" width="332.6935119628906"></rect><text class="blocklyText" y="12.5">LABEL, Time, Timer, Distance (in), Distance (cm),</text></g><g transform="translate(357.5767273902893,5)"><text class="blocklyText" y="12.5">”</text></g></g></g></g></g></g></g></g></g><rect x="100%" y="100%" rx="7" ry="7" width="218" height="84" style="fill:rgba(255,255,255,0.4);" transform="translate(-232,-100)" /><text class="bkginfo" x="100%" y="100%" transform="translate(-225,-83)" style="font-weight:bold;">Parallax BlocklyProp Project</text><text class="bkginfo" x="100%" y="100%" transform="translate(-225,-68)">User: offline</text><text class="bkginfo" x="100%" y="100%" transform="translate(-225,-53)">Title: PLX-DAQ LaserPING in BlocklyProp</text><text class="bkginfo" x="100%" y="100%" transform="translate(-225,-38)">Project ID: 0</text><text class="bkginfo" x="100%" y="100%" transform="translate(-225,-23)">Device: activity-board</text><text class="bkginfo" x="100%" y="100%" transform="translate(-225,-8)">Description: PLX-DAQ LaserPING in BlocklyProp example for Tiny Tutorial. Plots the distance measured by LaserPING in inches and centimeters (for the most current twenty-five measurements). Program will send the data on serial port to be accepted and placed into an Excel worksheet</text><text class="bkginfo" x="100%" y="100%" transform="translate(-225,13)" data-createdon="Tue Jun 23 2020 19:51:23 GMT-0500 (Central Daylight Time)" data-lastmodified="Wed Jun 24 2020 16:32:21 GMT-0500 (Central Daylight Time)"></text>blockly/xml"><variables><variable id="^`-Wu1=XzLL7HYT?#KD(">dist_in</variable><variable id="f[KHVh@W7|6OKE#65RQ|">dist_cm</variable><variable id="L@ErHORa~a35=TI6c+e(">Row</variable></variables><block type="comment" id="/awjN)_6S?W=v7%I_WU?" x="-698" y="-749"><mutation xmlns="http://www.w3.org/1999/xhtml" action="COMMENT"></mutation><field name="ACTION">COMMENT</field><field name="COMMENT_TEXT">PLX-DAQ LaserPING in BlocklyProp</field><next><block type="base_delay" id="Ewk1jx8YC@W|zgh$GsR4"><value name="DELAY_TIME"><block type="math_number" id=":|UoxIQge.90X:yaLX$0"><mutation xmlns="http://www.w3.org/1999/xhtml" blocktext="" warntext=""></mutation><field name="NUM">1000</field></block></value><next><block type="console_close" id="?^MRR.P~#?E7M~_W{A;="><next><block type="serial_open" id="eI@U8|^rxe@t@w:bgax*"><field name="RXPIN">31</field><field name="TXPIN">30</field><field name="BAUD">9600</field><field name="TYPE">standard</field><next><block type="serial_send_text" id="HLsdF!djEy/)yn?Ed|d,"><mutation xmlns="http://www.w3.org/1999/xhtml" pinmenu="[&quot;31,30&quot;]" type="BYTE"></mutation><field name="TYPE">BYTE</field><value name="VALUE"><block type="math_number" id="S61N4|.~-;U=M?GE_s*v"><mutation xmlns="http://www.w3.org/1999/xhtml" blocktext="" warntext=""></mutation><field name="NUM">13</field></block></value><next><block type="serial_send_text" id=";SZgWO!t?N1ydz()e=`]"><mutation xmlns="http://www.w3.org/1999/xhtml" pinmenu="[&quot;31,30&quot;]" type="TEXT"></mutation><field name="TYPE">TEXT</field><value name="VALUE"><block type="string_type_block" id="4Rpq?Y%_P]$CMvpBy[04"><field name="TEXT">LABEL, Time, Timer, Distance (in), Distance (cm),</field></block></value><next><block type="serial_send_text" id="B1KXYcWvb;{/N*j79/cn"><mutation xmlns="http://www.w3.org/1999/xhtml" pinmenu="[&quot;31,30&quot;]" type="BYTE"></mutation><field name="TYPE">BYTE</field><value name="VALUE"><block type="math_number" id="|Sz%ml!_.FT]Kyi=-!!`"><mutation xmlns="http://www.w3.org/1999/xhtml" blocktext="" warntext=""></mutation><field name="NUM">13</field></block></value><next><block type="serial_send_text" id=".d3kqd6g*stErbtkD4rJ"><mutation xmlns="http://www.w3.org/1999/xhtml" pinmenu="[&quot;31,30&quot;]" type="TEXT"></mutation><field name="TYPE">TEXT</field><value name="VALUE"><block type="string_type_block" id="hVae-oNI5Rd34%;cnRV."><field name="TEXT">CLEARDATA</field></block></value><next><block type="controls_repeat" id="nBu+No/lps)aiU=PHnk2"><mutation xmlns="http://www.w3.org/1999/xhtml" type="FOREVER"></mutation><field name="TYPE">FOREVER</field><statement name="DO"><block type="variables_set" id="+E8I*;hA,KnFq5[=F%jk"><field name="VAR" id="^`-Wu1=XzLL7HYT?#KD(">dist_in</field><value name="VALUE"><block type="sensor_ping" id="qHo):pvK7v:rdr+$z1O]"><mutation xmlns="http://www.w3.org/1999/xhtml" otherpin0="false"></mutation><field name="UNIT">_inches</field><field name="PIN">0</field></block></value><next><block type="variables_set" id="#2!VY3mwN4.LSndo~#x6"><field name="VAR" id="f[KHVh@W7|6OKE#65RQ|">dist_cm</field><value name="VALUE"><block type="sensor_ping" id="6`wMm;0q!x4=|D)=1)Fd"><mutation xmlns="http://www.w3.org/1999/xhtml" otherpin0="false"></mutation><field name="UNIT">_cm</field><field name="PIN">0</field></block></value><next><block type="serial_print_multiple" id="fU|QeNbqTFHb0|$6.joW"><mutation xmlns="http://www.w3.org/1999/xhtml" pinmenu="[&quot;31,30&quot;]" options="[&quot;str&quot;,&quot;dec&quot;,&quot;str&quot;,&quot;dec&quot;,&quot;str&quot;,&quot;char&quot;,&quot;str&quot;,&quot;char&quot;]" divisors="[&quot;0&quot;,&quot;0&quot;,&quot;0&quot;,&quot;0&quot;,&quot;0&quot;,&quot;0&quot;,&quot;0&quot;,&quot;0&quot;]"></mutation><value name="PRINT0"><block type="string_type_block" id="{nE%szwhm=wJY_BDJJLF"><field name="TEXT">DATA, TIME, TIMER,</field></block></value><value name="PRINT1"><block type="variables_get" id="T{2)!N`R,?@WK%s^krEG"><field name="VAR" id="^`-Wu1=XzLL7HYT?#KD(">dist_in</field></block></value><value name="PRINT2"><block type="string_type_block" id="aGX5iIk$,$-lc7MWlUu2"><field name="TEXT">,</field></block></value><value name="PRINT3"><block type="variables_get" id="czFjbal/od~3U`@1:jle"><field name="VAR" id="f[KHVh@W7|6OKE#65RQ|">dist_cm</field></block></value><value name="PRINT4"><block type="string_type_block" id="H-`V%XkgTz5m7+Ba9c=o"><field name="TEXT">,</field></block></value><value name="PRINT5"><block type="math_number" id="pp79CH^}{G|;@oAhI;Gn"><mutation xmlns="http://www.w3.org/1999/xhtml" blocktext="" warntext=""></mutation><field name="NUM">13</field></block></value><value name="PRINT6"><block type="string_type_block" id="L]Ogjl8I603-2:WQnH|%"><field name="TEXT">ROW,GET, </field></block></value><value name="PRINT7"><block type="math_number" id="X@F4T|.r7b%%`]XHXnPY"><mutation xmlns="http://www.w3.org/1999/xhtml" blocktext="" warntext=""></mutation><field name="NUM">13</field></block></value><next><block type="serial_receive_text" id="@|ZSvV[IBWiQ}Uw,Q*Ln"><mutation xmlns="http://www.w3.org/1999/xhtml" pinmenu="[&quot;31,30&quot;]" type="INT"></mutation><field name="TYPE">INT</field><field name="VALUE" id="L@ErHORa~a35=TI6c+e(">Row</field><next><block type="base_delay" id="O:n00nb+dS6{)?eK1C3|"><value name="DELAY_TIME"><block type="math_number" id="m#~0|cF{q.ND=h;6vprG"><mutation xmlns="http://www.w3.org/1999/xhtml" blocktext="" warntext=""></mutation><field name="NUM">200</field></block></value><next><block type="controls_if" id="n3[@saQS4i:_2Gyxqsr0"><value name="IF0"><block type="logic_compare" id="0%qV+9KmNMcv%+dIG*HW"><field name="OP">&gt;</field><value name="A"><block type="variables_get" id="QQ=bZ9Y?EjavjP~HLMKq"><field name="VAR" id="L@ErHORa~a35=TI6c+e(">Row</field></block></value><value name="B"><block type="math_number" id="`sc%!]]ZE+mfz_@1RtOY"><mutation xmlns="http://www.w3.org/1999/xhtml" blocktext="" warntext=""></mutation><field name="NUM">25</field></block></value></block></value><statement name="DO0"><block type="serial_print_multiple" id=".`tKXo/)i_=T!RvhHu0s"><mutation xmlns="http://www.w3.org/1999/xhtml" pinmenu="[&quot;31,30&quot;]" options="[&quot;str&quot;,&quot;char&quot;]" divisors="[&quot;0&quot;,&quot;0&quot;]"></mutation><value name="PRINT0"><block type="string_type_block" id="zx9^OWN*jT{_ae%th]@M"><field name="TEXT">ROW,SET,2,</field></block></value><value name="PRINT1"><block type="math_number" id=":$`HOeu2-wcDFxS{k}R0"><mutation xmlns="http://www.w3.org/1999/xhtml" blocktext="" warntext=""></mutation><field name="NUM">13</field></block></value></block></statement><next><block type="base_delay" id="S2f65zQASzPf8UcoXTY2"><value name="DELAY_TIME"><block type="math_number" id="2./@Db.J15qXcF|DY_I{"><mutation xmlns="http://www.w3.org/1999/xhtml" blocktext="" warntext=""></mutation><field name="NUM">300</field></block></value></block></next></block></next></block></next></block></next></block></next></block></next></block></statement></block></next></block></next></block></next></block></next></block></next></block></next></block></next></block></next></block><ckm>000000000000</ckm></svg>